<?xml version="1.0" encoding="utf-8"?>
<!-- Generator: Adobe Illustrator 16.0.0, SVG Export Plug-In . SVG Version: 6.00 Build 0)  -->
<!DOCTYPE svg PUBLIC "-//W3C//DTD SVG 1.1//EN" "http://www.w3.org/Graphics/SVG/1.1/DTD/svg11.dtd">
<svg version="1.1" id="Layer_1" xmlns="http://www.w3.org/2000/svg" xmlns:xlink="http://www.w3.org/1999/xlink" x="0px" y="0px"
	 width="22px" height="22.667px" viewBox="0 0 22 22.667" enable-background="new 0 0 22 22.667" xml:space="preserve">
<g>
	<defs>
		<rect id="SVGID_1_" y="-229.028" width="750" height="1334"/>
	</defs>
	<clipPath id="SVGID_2_">
		<use xlink:href="#SVGID_1_"  overflow="visible"/>
	</clipPath>
	<path clip-path="url(#SVGID_2_)" fill="#595E6F" d="M11.616,22.686L11.616,22.686c-0.264,0-0.52-0.006-0.763-0.019
		c-0.176,0.007-0.36,0.012-0.545,0.012c-2.37,0-5.088-0.606-6.502-0.969c-1.385-0.313-2.564-0.685-3.504-1.104
		c-0.104-0.047-0.188-0.131-0.231-0.236c-0.078-0.183-0.377-1.224,1.343-3.771c0.003-0.004,0.007-0.009,0.01-0.014
		c0.019-0.026,0.446-0.597,1.39-1.057c0.037-0.04,0.083-0.074,0.134-0.098l4.299-2.055c0.015-0.061,0.032-0.129,0.048-0.193
		c0.039-0.159,0.083-0.336,0.117-0.474c0.003-0.013,0.006-0.025,0.01-0.038c-0.401-0.587-0.714-1.234-0.914-1.89
		c-0.186-0.153-0.416-0.443-0.506-0.975c-0.162-0.587-0.289-1.356,0-1.738c0.052-0.068,0.114-0.124,0.184-0.165
		c-0.513-2.625-0.199-3.675-0.125-3.87c0.68-2.085,2.877-3.102,3.068-3.187C10.03,0.407,11.196,0.016,11.246,0
		c0.138-0.046,0.289-0.023,0.407,0.062c0.118,0.085,0.188,0.221,0.188,0.366c0,0.172,0.304,0.468,0.521,0.605
		c0.024,0.015,0.047,0.032,0.067,0.052c0.074,0.053,0.338,0.19,0.467,0.256c0.104,0.053,0.169,0.087,0.217,0.114
		c1.479,0.457,2.171,1.277,2.286,1.424c1.45,1.646,0.77,4.161,0.527,4.896c0.044,0.053,0.087,0.114,0.125,0.188
		c0.2,0.384,0.181,0.922-0.056,1.6c-0.043,0.192-0.244,1.011-0.643,1.48c-0.216,0.573-0.52,1.139-0.886,1.649
		c0.008,0.082,0.032,0.158,0.081,0.309l0.007,0.023c0.044,0.138,0.094,0.27,0.127,0.354l3.077,1.711
		c1.04,0.449,2.545,1.241,2.891,1.521c0.358,0.29,1.437,2.457,1.375,3.494c-0.025,0.423-0.22,0.632-0.379,0.732
		c-0.02,0.012-0.041,0.023-0.063,0.033c-0.141,0.06-3.511,1.488-8.451,1.757C12.596,22.666,12.086,22.686,11.616,22.686
		 M84.571-82.023c-0.854,0-1.627,0.209-2.293,0.558l0.142-0.068c0.708-0.339,1.486-0.503,2.27-0.488
		C84.651-82.023,84.611-82.023,84.571-82.023"/>
</g>
</svg>
